<svg width="1419" height="1024" viewBox="0 0 1419 1024" fill="none" xmlns="http://www.w3.org/2000/svg">
<ellipse cx="322" cy="22.8722" rx="4" ry="4.17444" fill="#728797"/>
<ellipse cx="322" cy="66.2211" rx="4" ry="4.17444" fill="#728797"/>
<ellipse cx="322" cy="109.57" rx="4" ry="4.17444" fill="#728797"/>
<ellipse cx="322" cy="152.919" rx="4" ry="4.17444" fill="#728797"/>
<ellipse cx="322" cy="196.268" rx="4" ry="4.17444" fill="#728797"/>
<ellipse cx="322" cy="239.617" rx="4" ry="4.17444" fill="#728797"/>
<ellipse cx="322" cy="282.965" rx="4" ry="4.17444" fill="#728797"/>
<ellipse cx="322" cy="326.314" rx="4" ry="4.17444" fill="#728797"/>
<ellipse cx="322" cy="369.663" rx="4" ry="4.17444" fill="#728797"/>
<ellipse cx="322" cy="413.012" rx="4" ry="4.17444" fill="#728797"/>
<ellipse cx="322" cy="456.361" rx="4" ry="4.17444" fill="#728797"/>
<ellipse cx="322" cy="499.71" rx="4" ry="4.17444" fill="#728797"/>
<ellipse cx="322" cy="543.059" rx="4" ry="4.17444" fill="#728797"/>
<ellipse cx="322" cy="586.408" rx="4" ry="4.17444" fill="#728797"/>
<ellipse cx="322" cy="629.757" rx="4" ry="4.17444" fill="#728797"/>
<ellipse cx="322" cy="673.105" rx="4" ry="4.17444" fill="#728797"/>
<ellipse cx="322" cy="716.454" rx="4" ry="4.17444" fill="#728797"/>
<ellipse cx="322" cy="759.803" rx="4" ry="4.17444" fill="#728797"/>
<ellipse cx="322" cy="803.152" rx="4" ry="4.17444" fill="#728797"/>
<ellipse cx="322" cy="846.501" rx="4" ry="4.17444" fill="#728797"/>
<ellipse cx="322" cy="889.85" rx="4" ry="4.17444" fill="#728797"/>
<ellipse cx="322" cy="933.199" rx="4" ry="4.17444" fill="#728797"/>
<ellipse cx="322" cy="976.548" rx="4" ry="4.17444" fill="#728797"/>
<ellipse cx="322" cy="1019.9" rx="4" ry="4.17444" fill="#728797"/>
<ellipse cx="393" cy="22.8722" rx="4" ry="4.17444" fill="#728797"/>
<ellipse cx="393" cy="66.2211" rx="4" ry="4.17444" fill="#728797"/>
<ellipse cx="393" cy="109.57" rx="4" ry="4.17444" fill="#728797"/>
<ellipse cx="393" cy="152.919" rx="4" ry="4.17444" fill="#728797"/>
<ellipse cx="393" cy="196.268" rx="4" ry="4.17444" fill="#728797"/>
<ellipse cx="393" cy="239.617" rx="4" ry="4.17444" fill="#728797"/>
<ellipse cx="393" cy="282.965" rx="4" ry="4.17444" fill="#728797"/>
<ellipse cx="393" cy="326.314" rx="4" ry="4.17444" fill="#728797"/>
<ellipse cx="393" cy="369.663" rx="4" ry="4.17444" fill="#728797"/>
<ellipse cx="393" cy="413.012" rx="4" ry="4.17444" fill="#728797"/>
<ellipse cx="393" cy="456.361" rx="4" ry="4.17444" fill="#728797"/>
<ellipse cx="393" cy="499.71" rx="4" ry="4.17444" fill="#728797"/>
<ellipse cx="393" cy="543.059" rx="4" ry="4.17444" fill="#728797"/>
<ellipse cx="393" cy="586.408" rx="4" ry="4.17444" fill="#728797"/>
<ellipse cx="393" cy="629.757" rx="4" ry="4.17444" fill="#728797"/>
<ellipse cx="393" cy="673.105" rx="4" ry="4.17444" fill="#728797"/>
<ellipse cx="393" cy="716.454" rx="4" ry="4.17444" fill="#728797"/>
<ellipse cx="393" cy="759.803" rx="4" ry="4.17444" fill="#728797"/>
<ellipse cx="393" cy="803.152" rx="4" ry="4.17444" fill="#728797"/>
<ellipse cx="393" cy="846.501" rx="4" ry="4.17444" fill="#728797"/>
<ellipse cx="393" cy="889.85" rx="4" ry="4.17444" fill="#728797"/>
<ellipse cx="393" cy="933.199" rx="4" ry="4.17444" fill="#728797"/>
<ellipse cx="393" cy="976.548" rx="4" ry="4.17444" fill="#728797"/>
<ellipse cx="393" cy="1019.9" rx="4" ry="4.17444" fill="#728797"/>
<ellipse cx="464" cy="22.8722" rx="4" ry="4.17444" fill="#728797"/>
<ellipse cx="464" cy="66.2211" rx="4" ry="4.17444" fill="#728797"/>
<ellipse cx="464" cy="109.57" rx="4" ry="4.17444" fill="#728797"/>
<ellipse cx="464" cy="152.919" rx="4" ry="4.17444" fill="#728797"/>
<ellipse cx="464" cy="196.268" rx="4" ry="4.17444" fill="#728797"/>
<ellipse cx="464" cy="239.617" rx="4" ry="4.17444" fill="#728797"/>
<ellipse cx="464" cy="282.965" rx="4" ry="4.17444" fill="#728797"/>
<ellipse cx="464" cy="326.314" rx="4" ry="4.17444" fill="#728797"/>
<ellipse cx="464" cy="369.663" rx="4" ry="4.17444" fill="#728797"/>
<ellipse cx="464" cy="413.012" rx="4" ry="4.17444" fill="#728797"/>
<ellipse cx="464" cy="456.361" rx="4" ry="4.17444" fill="#728797"/>
<ellipse cx="464" cy="499.71" rx="4" ry="4.17444" fill="#728797"/>
<ellipse cx="464" cy="543.059" rx="4" ry="4.17444" fill="#728797"/>
<ellipse cx="464" cy="586.408" rx="4" ry="4.17444" fill="#728797"/>
<ellipse cx="464" cy="629.757" rx="4" ry="4.17444" fill="#728797"/>
<ellipse cx="464" cy="673.105" rx="4" ry="4.17444" fill="#728797"/>
<ellipse cx="464" cy="716.454" rx="4" ry="4.17444" fill="#728797"/>
<ellipse cx="464" cy="759.803" rx="4" ry="4.17444" fill="#728797"/>
<ellipse cx="464" cy="803.152" rx="4" ry="4.17444" fill="#728797"/>
<ellipse cx="464" cy="846.501" rx="4" ry="4.17444" fill="#728797"/>
<ellipse cx="464" cy="889.85" rx="4" ry="4.17444" fill="#728797"/>
<ellipse cx="464" cy="933.199" rx="4" ry="4.17444" fill="#728797"/>
<ellipse cx="464" cy="976.548" rx="4" ry="4.17444" fill="#728797"/>
<ellipse cx="464" cy="1019.9" rx="4" ry="4.17444" fill="#728797"/>
<ellipse cx="535" cy="22.8722" rx="4" ry="4.17444" fill="#728797"/>
<ellipse cx="535" cy="66.2211" rx="4" ry="4.17444" fill="#728797"/>
<ellipse cx="535" cy="109.57" rx="4" ry="4.17444" fill="#728797"/>
<ellipse cx="535" cy="152.919" rx="4" ry="4.17444" fill="#728797"/>
<ellipse cx="535" cy="196.268" rx="4" ry="4.17444" fill="#728797"/>
<ellipse cx="535" cy="239.617" rx="4" ry="4.17444" fill="#728797"/>
<ellipse cx="535" cy="282.965" rx="4" ry="4.17444" fill="#728797"/>
<ellipse cx="535" cy="326.314" rx="4" ry="4.17444" fill="#728797"/>
<ellipse cx="535" cy="369.663" rx="4" ry="4.17444" fill="#728797"/>
<ellipse cx="535" cy="413.012" rx="4" ry="4.17444" fill="#728797"/>
<ellipse cx="535" cy="456.361" rx="4" ry="4.17444" fill="#728797"/>
<ellipse cx="535" cy="499.71" rx="4" ry="4.17444" fill="#728797"/>
<ellipse cx="535" cy="543.059" rx="4" ry="4.17444" fill="#728797"/>
<ellipse cx="535" cy="586.408" rx="4" ry="4.17444" fill="#728797"/>
<ellipse cx="535" cy="629.757" rx="4" ry="4.17444" fill="#728797"/>
<ellipse cx="535" cy="673.105" rx="4" ry="4.17444" fill="#728797"/>
<ellipse cx="535" cy="716.454" rx="4" ry="4.17444" fill="#728797"/>
<ellipse cx="535" cy="759.803" rx="4" ry="4.17444" fill="#728797"/>
<ellipse cx="535" cy="803.152" rx="4" ry="4.17444" fill="#728797"/>
<ellipse cx="535" cy="846.501" rx="4" ry="4.17444" fill="#728797"/>
<ellipse cx="535" cy="889.85" rx="4" ry="4.17444" fill="#728797"/>
<ellipse cx="535" cy="933.199" rx="4" ry="4.17444" fill="#728797"/>
<ellipse cx="535" cy="976.548" rx="4" ry="4.17444" fill="#728797"/>
<ellipse cx="535" cy="1019.9" rx="4" ry="4.17444" fill="#728797"/>
<ellipse cx="606" cy="22.8722" rx="4" ry="4.17444" fill="#728797"/>
<ellipse cx="606" cy="66.2211" rx="4" ry="4.17444" fill="#728797"/>
<ellipse cx="606" cy="109.57" rx="4" ry="4.17444" fill="#728797"/>
<ellipse cx="606" cy="152.919" rx="4" ry="4.17444" fill="#728797"/>
<ellipse cx="606" cy="196.268" rx="4" ry="4.17444" fill="#728797"/>
<ellipse cx="606" cy="239.617" rx="4" ry="4.17444" fill="#728797"/>
<ellipse cx="606" cy="282.965" rx="4" ry="4.17444" fill="#728797"/>
<ellipse cx="606" cy="326.314" rx="4" ry="4.17444" fill="#728797"/>
<ellipse cx="606" cy="369.663" rx="4" ry="4.17444" fill="#728797"/>
<ellipse cx="606" cy="413.012" rx="4" ry="4.17444" fill="#728797"/>
<ellipse cx="606" cy="456.361" rx="4" ry="4.17444" fill="#728797"/>
<ellipse cx="606" cy="499.71" rx="4" ry="4.17444" fill="#728797"/>
<ellipse cx="606" cy="543.059" rx="4" ry="4.17444" fill="#728797"/>
<ellipse cx="606" cy="586.408" rx="4" ry="4.17444" fill="#728797"/>
<ellipse cx="606" cy="629.757" rx="4" ry="4.17444" fill="#728797"/>
<ellipse cx="606" cy="673.105" rx="4" ry="4.17444" fill="#728797"/>
<ellipse cx="606" cy="716.454" rx="4" ry="4.17444" fill="#728797"/>
<ellipse cx="606" cy="759.803" rx="4" ry="4.17444" fill="#728797"/>
<ellipse cx="606" cy="803.152" rx="4" ry="4.17444" fill="#728797"/>
<ellipse cx="606" cy="846.501" rx="4" ry="4.17444" fill="#728797"/>
<ellipse cx="606" cy="889.85" rx="4" ry="4.17444" fill="#728797"/>
<ellipse cx="606" cy="933.199" rx="4" ry="4.17444" fill="#728797"/>
<ellipse cx="606" cy="976.548" rx="4" ry="4.17444" fill="#728797"/>
<ellipse cx="606" cy="1019.9" rx="4" ry="4.17444" fill="#728797"/>
<ellipse cx="677" cy="22.8722" rx="4" ry="4.17444" fill="#728797"/>
<ellipse cx="677" cy="66.2211" rx="4" ry="4.17444" fill="#728797"/>
<ellipse cx="677" cy="109.57" rx="4" ry="4.17444" fill="#728797"/>
<ellipse cx="677" cy="152.919" rx="4" ry="4.17444" fill="#728797"/>
<ellipse cx="677" cy="196.268" rx="4" ry="4.17444" fill="#728797"/>
<ellipse cx="677" cy="239.617" rx="4" ry="4.17444" fill="#728797"/>
<ellipse cx="677" cy="282.965" rx="4" ry="4.17444" fill="#728797"/>
<ellipse cx="677" cy="326.314" rx="4" ry="4.17444" fill="#728797"/>
<ellipse cx="677" cy="369.663" rx="4" ry="4.17444" fill="#728797"/>
<ellipse cx="677" cy="413.012" rx="4" ry="4.17444" fill="#728797"/>
<ellipse cx="677" cy="456.361" rx="4" ry="4.17444" fill="#728797"/>
<ellipse cx="677" cy="499.71" rx="4" ry="4.17444" fill="#728797"/>
<ellipse cx="677" cy="543.059" rx="4" ry="4.17444" fill="#728797"/>
<ellipse cx="677" cy="586.408" rx="4" ry="4.17444" fill="#728797"/>
<ellipse cx="677" cy="629.757" rx="4" ry="4.17444" fill="#728797"/>
<ellipse cx="677" cy="673.105" rx="4" ry="4.17444" fill="#728797"/>
<ellipse cx="677" cy="716.454" rx="4" ry="4.17444" fill="#728797"/>
<ellipse cx="677" cy="759.803" rx="4" ry="4.17444" fill="#728797"/>
<ellipse cx="677" cy="803.152" rx="4" ry="4.17444" fill="#728797"/>
<ellipse cx="677" cy="846.501" rx="4" ry="4.17444" fill="#728797"/>
<ellipse cx="677" cy="889.85" rx="4" ry="4.17444" fill="#728797"/>
<ellipse cx="677" cy="933.199" rx="4" ry="4.17444" fill="#728797"/>
<ellipse cx="677" cy="976.548" rx="4" ry="4.17444" fill="#728797"/>
<ellipse cx="677" cy="1019.9" rx="4" ry="4.17444" fill="#728797"/>
<ellipse cx="748" cy="22.8722" rx="4" ry="4.17444" fill="#728797"/>
<ellipse cx="748" cy="66.2211" rx="4" ry="4.17444" fill="#728797"/>
<ellipse cx="748" cy="109.57" rx="4" ry="4.17444" fill="#728797"/>
<ellipse cx="748" cy="152.919" rx="4" ry="4.17444" fill="#728797"/>
<ellipse cx="748" cy="196.268" rx="4" ry="4.17444" fill="#728797"/>
<ellipse cx="748" cy="239.617" rx="4" ry="4.17444" fill="#728797"/>
<ellipse cx="748" cy="282.965" rx="4" ry="4.17444" fill="#728797"/>
<ellipse cx="748" cy="326.314" rx="4" ry="4.17444" fill="#728797"/>
<ellipse cx="748" cy="369.663" rx="4" ry="4.17444" fill="#728797"/>
<ellipse cx="748" cy="413.012" rx="4" ry="4.17444" fill="#728797"/>
<ellipse cx="748" cy="456.361" rx="4" ry="4.17444" fill="#728797"/>
<ellipse cx="748" cy="499.71" rx="4" ry="4.17444" fill="#728797"/>
<ellipse cx="748" cy="543.059" rx="4" ry="4.17444" fill="#728797"/>
<ellipse cx="748" cy="586.408" rx="4" ry="4.17444" fill="#728797"/>
<ellipse cx="748" cy="629.757" rx="4" ry="4.17444" fill="#728797"/>
<ellipse cx="748" cy="673.105" rx="4" ry="4.17444" fill="#728797"/>
<ellipse cx="748" cy="716.454" rx="4" ry="4.17444" fill="#728797"/>
<ellipse cx="748" cy="759.803" rx="4" ry="4.17444" fill="#728797"/>
<ellipse cx="748" cy="803.152" rx="4" ry="4.17444" fill="#728797"/>
<ellipse cx="748" cy="846.501" rx="4" ry="4.17444" fill="#728797"/>
<ellipse cx="748" cy="889.85" rx="4" ry="4.17444" fill="#728797"/>
<ellipse cx="748" cy="933.199" rx="4" ry="4.17444" fill="#728797"/>
<ellipse cx="748" cy="976.548" rx="4" ry="4.17444" fill="#728797"/>
<ellipse cx="748" cy="1019.9" rx="4" ry="4.17444" fill="#728797"/>
<ellipse cx="819" cy="22.8722" rx="4" ry="4.17444" fill="#728797"/>
<ellipse cx="819" cy="66.2211" rx="4" ry="4.17444" fill="#728797"/>
<ellipse cx="819" cy="109.57" rx="4" ry="4.17444" fill="#728797"/>
<ellipse cx="819" cy="152.919" rx="4" ry="4.17444" fill="#728797"/>
<ellipse cx="819" cy="196.268" rx="4" ry="4.17444" fill="#728797"/>
<ellipse cx="819" cy="239.617" rx="4" ry="4.17444" fill="#728797"/>
<ellipse cx="819" cy="282.965" rx="4" ry="4.17444" fill="#728797"/>
<ellipse cx="819" cy="326.314" rx="4" ry="4.17444" fill="#728797"/>
<ellipse cx="819" cy="369.663" rx="4" ry="4.17444" fill="#728797"/>
<ellipse cx="819" cy="413.012" rx="4" ry="4.17444" fill="#728797"/>
<ellipse cx="819" cy="456.361" rx="4" ry="4.17444" fill="#728797"/>
<ellipse cx="819" cy="499.71" rx="4" ry="4.17444" fill="#728797"/>
<ellipse cx="819" cy="543.059" rx="4" ry="4.17444" fill="#728797"/>
<ellipse cx="819" cy="586.408" rx="4" ry="4.17444" fill="#728797"/>
<ellipse cx="819" cy="629.757" rx="4" ry="4.17444" fill="#728797"/>
<ellipse cx="819" cy="673.105" rx="4" ry="4.17444" fill="#728797"/>
<ellipse cx="819" cy="716.454" rx="4" ry="4.17444" fill="#728797"/>
<ellipse cx="819" cy="759.803" rx="4" ry="4.17444" fill="#728797"/>
<ellipse cx="819" cy="803.152" rx="4" ry="4.17444" fill="#728797"/>
<ellipse cx="819" cy="846.501" rx="4" ry="4.17444" fill="#728797"/>
<ellipse cx="819" cy="889.85" rx="4" ry="4.17444" fill="#728797"/>
<ellipse cx="819" cy="933.199" rx="4" ry="4.17444" fill="#728797"/>
<ellipse cx="819" cy="976.548" rx="4" ry="4.17444" fill="#728797"/>
<ellipse cx="819" cy="1019.9" rx="4" ry="4.17444" fill="#728797"/>
<ellipse cx="890" cy="22.8722" rx="4" ry="4.17444" fill="#728797"/>
<ellipse cx="890" cy="66.2211" rx="4" ry="4.17444" fill="#728797"/>
<ellipse cx="890" cy="109.57" rx="4" ry="4.17444" fill="#728797"/>
<ellipse cx="890" cy="152.919" rx="4" ry="4.17444" fill="#728797"/>
<ellipse cx="890" cy="196.268" rx="4" ry="4.17444" fill="#728797"/>
<ellipse cx="890" cy="239.617" rx="4" ry="4.17444" fill="#728797"/>
<ellipse cx="890" cy="282.965" rx="4" ry="4.17444" fill="#728797"/>
<ellipse cx="890" cy="326.314" rx="4" ry="4.17444" fill="#728797"/>
<ellipse cx="890" cy="369.663" rx="4" ry="4.17444" fill="#728797"/>
<ellipse cx="890" cy="413.012" rx="4" ry="4.17444" fill="#728797"/>
<ellipse cx="890" cy="456.361" rx="4" ry="4.17444" fill="#728797"/>
<ellipse cx="890" cy="499.71" rx="4" ry="4.17444" fill="#728797"/>
<ellipse cx="890" cy="543.059" rx="4" ry="4.17444" fill="#728797"/>
<ellipse cx="890" cy="586.408" rx="4" ry="4.17444" fill="#728797"/>
<ellipse cx="890" cy="629.757" rx="4" ry="4.17444" fill="#728797"/>
<ellipse cx="890" cy="673.105" rx="4" ry="4.17444" fill="#728797"/>
<ellipse cx="890" cy="716.454" rx="4" ry="4.17444" fill="#728797"/>
<ellipse cx="890" cy="759.803" rx="4" ry="4.17444" fill="#728797"/>
<ellipse cx="890" cy="803.152" rx="4" ry="4.17444" fill="#728797"/>
<ellipse cx="890" cy="846.501" rx="4" ry="4.17444" fill="#728797"/>
<ellipse cx="890" cy="889.85" rx="4" ry="4.17444" fill="#728797"/>
<ellipse cx="890" cy="933.199" rx="4" ry="4.17444" fill="#728797"/>
<ellipse cx="890" cy="976.548" rx="4" ry="4.17444" fill="#728797"/>
<ellipse cx="890" cy="1019.9" rx="4" ry="4.17444" fill="#728797"/>
<ellipse cx="961" cy="22.8722" rx="4" ry="4.17444" fill="#728797"/>
<ellipse cx="961" cy="66.2211" rx="4" ry="4.17444" fill="#728797"/>
<ellipse cx="961" cy="109.57" rx="4" ry="4.17444" fill="#728797"/>
<ellipse cx="961" cy="152.919" rx="4" ry="4.17444" fill="#728797"/>
<ellipse cx="961" cy="196.268" rx="4" ry="4.17444" fill="#728797"/>
<ellipse cx="961" cy="239.617" rx="4" ry="4.17444" fill="#728797"/>
<ellipse cx="961" cy="282.965" rx="4" ry="4.17444" fill="#728797"/>
<ellipse cx="961" cy="326.314" rx="4" ry="4.17444" fill="#728797"/>
<ellipse cx="961" cy="369.663" rx="4" ry="4.17444" fill="#728797"/>
<ellipse cx="961" cy="413.012" rx="4" ry="4.17444" fill="#728797"/>
<ellipse cx="961" cy="456.361" rx="4" ry="4.17444" fill="#728797"/>
<ellipse cx="961" cy="499.71" rx="4" ry="4.17444" fill="#728797"/>
<ellipse cx="961" cy="543.059" rx="4" ry="4.17444" fill="#728797"/>
<ellipse cx="961" cy="586.408" rx="4" ry="4.17444" fill="#728797"/>
<ellipse cx="961" cy="629.757" rx="4" ry="4.17444" fill="#728797"/>
<ellipse cx="961" cy="673.105" rx="4" ry="4.17444" fill="#728797"/>
<ellipse cx="961" cy="716.454" rx="4" ry="4.17444" fill="#728797"/>
<ellipse cx="961" cy="759.803" rx="4" ry="4.17444" fill="#728797"/>
<ellipse cx="961" cy="803.152" rx="4" ry="4.17444" fill="#728797"/>
<ellipse cx="961" cy="846.501" rx="4" ry="4.17444" fill="#728797"/>
<ellipse cx="961" cy="889.85" rx="4" ry="4.17444" fill="#728797"/>
<ellipse cx="961" cy="933.199" rx="4" ry="4.17444" fill="#728797"/>
<ellipse cx="961" cy="976.548" rx="4" ry="4.17444" fill="#728797"/>
<ellipse cx="961" cy="1019.9" rx="4" ry="4.17444" fill="#728797"/>
<ellipse cx="1032" cy="22.8722" rx="4" ry="4.17444" fill="#728797"/>
<ellipse cx="1032" cy="66.2211" rx="4" ry="4.17444" fill="#728797"/>
<ellipse cx="1032" cy="109.57" rx="4" ry="4.17444" fill="#728797"/>
<ellipse cx="1032" cy="152.919" rx="4" ry="4.17444" fill="#728797"/>
<ellipse cx="1032" cy="196.268" rx="4" ry="4.17444" fill="#728797"/>
<ellipse cx="1032" cy="239.617" rx="4" ry="4.17444" fill="#728797"/>
<ellipse cx="1032" cy="282.965" rx="4" ry="4.17444" fill="#728797"/>
<ellipse cx="1032" cy="326.314" rx="4" ry="4.17444" fill="#728797"/>
<ellipse cx="1032" cy="369.663" rx="4" ry="4.17444" fill="#728797"/>
<ellipse cx="1032" cy="413.012" rx="4" ry="4.17444" fill="#728797"/>
<ellipse cx="1032" cy="456.361" rx="4" ry="4.17444" fill="#728797"/>
<ellipse cx="1032" cy="499.71" rx="4" ry="4.17444" fill="#728797"/>
<ellipse cx="1032" cy="543.059" rx="4" ry="4.17444" fill="#728797"/>
<ellipse cx="1032" cy="586.408" rx="4" ry="4.17444" fill="#728797"/>
<ellipse cx="1032" cy="629.757" rx="4" ry="4.17444" fill="#728797"/>
<ellipse cx="1032" cy="673.105" rx="4" ry="4.17444" fill="#728797"/>
<ellipse cx="1032" cy="716.454" rx="4" ry="4.17444" fill="#728797"/>
<ellipse cx="1032" cy="759.803" rx="4" ry="4.17444" fill="#728797"/>
<ellipse cx="1032" cy="803.152" rx="4" ry="4.17444" fill="#728797"/>
<ellipse cx="1032" cy="846.501" rx="4" ry="4.17444" fill="#728797"/>
<ellipse cx="1032" cy="889.85" rx="4" ry="4.17444" fill="#728797"/>
<ellipse cx="1032" cy="933.199" rx="4" ry="4.17444" fill="#728797"/>
<ellipse cx="1032" cy="976.548" rx="4" ry="4.17444" fill="#728797"/>
<ellipse cx="1032" cy="1019.9" rx="4" ry="4.17444" fill="#728797"/>
<ellipse cx="1103" cy="22.8722" rx="4" ry="4.17444" fill="#728797"/>
<ellipse cx="1103" cy="66.2211" rx="4" ry="4.17444" fill="#728797"/>
<ellipse cx="1103" cy="109.57" rx="4" ry="4.17444" fill="#728797"/>
<ellipse cx="1103" cy="152.919" rx="4" ry="4.17444" fill="#728797"/>
<ellipse cx="1103" cy="196.268" rx="4" ry="4.17444" fill="#728797"/>
<ellipse cx="1103" cy="239.617" rx="4" ry="4.17444" fill="#728797"/>
<ellipse cx="1103" cy="282.965" rx="4" ry="4.17444" fill="#728797"/>
<ellipse cx="1103" cy="326.314" rx="4" ry="4.17444" fill="#728797"/>
<ellipse cx="1103" cy="369.663" rx="4" ry="4.17444" fill="#728797"/>
<ellipse cx="1103" cy="413.012" rx="4" ry="4.17444" fill="#728797"/>
<ellipse cx="1103" cy="456.361" rx="4" ry="4.17444" fill="#728797"/>
<ellipse cx="1103" cy="499.71" rx="4" ry="4.17444" fill="#728797"/>
<ellipse cx="1103" cy="543.059" rx="4" ry="4.17444" fill="#728797"/>
<ellipse cx="1103" cy="586.408" rx="4" ry="4.17444" fill="#728797"/>
<ellipse cx="1103" cy="629.757" rx="4" ry="4.17444" fill="#728797"/>
<ellipse cx="1103" cy="673.105" rx="4" ry="4.17444" fill="#728797"/>
<ellipse cx="1103" cy="716.454" rx="4" ry="4.17444" fill="#728797"/>
<ellipse cx="1103" cy="759.803" rx="4" ry="4.17444" fill="#728797"/>
<ellipse cx="1103" cy="803.152" rx="4" ry="4.17444" fill="#728797"/>
<ellipse cx="1103" cy="846.501" rx="4" ry="4.17444" fill="#728797"/>
<ellipse cx="1103" cy="889.85" rx="4" ry="4.17444" fill="#728797"/>
<ellipse cx="1103" cy="933.199" rx="4" ry="4.17444" fill="#728797"/>
<ellipse cx="1103" cy="976.548" rx="4" ry="4.17444" fill="#728797"/>
<ellipse cx="1103" cy="1019.9" rx="4" ry="4.17444" fill="#728797"/>
<ellipse cx="1174" cy="22.8722" rx="4" ry="4.17444" fill="#728797"/>
<ellipse cx="1174" cy="66.2211" rx="4" ry="4.17444" fill="#728797"/>
<ellipse cx="1174" cy="109.57" rx="4" ry="4.17444" fill="#728797"/>
<ellipse cx="1174" cy="152.919" rx="4" ry="4.17444" fill="#728797"/>
<ellipse cx="1174" cy="196.268" rx="4" ry="4.17444" fill="#728797"/>
<ellipse cx="1174" cy="239.617" rx="4" ry="4.17444" fill="#728797"/>
<ellipse cx="1174" cy="282.965" rx="4" ry="4.17444" fill="#728797"/>
<ellipse cx="1174" cy="326.314" rx="4" ry="4.17444" fill="#728797"/>
<ellipse cx="1174" cy="369.663" rx="4" ry="4.17444" fill="#728797"/>
<ellipse cx="1174" cy="413.012" rx="4" ry="4.17444" fill="#728797"/>
<ellipse cx="1174" cy="456.361" rx="4" ry="4.17444" fill="#728797"/>
<ellipse cx="1174" cy="499.71" rx="4" ry="4.17444" fill="#728797"/>
<ellipse cx="1174" cy="543.059" rx="4" ry="4.17444" fill="#728797"/>
<ellipse cx="1174" cy="586.408" rx="4" ry="4.17444" fill="#728797"/>
<ellipse cx="1174" cy="629.757" rx="4" ry="4.17444" fill="#728797"/>
<ellipse cx="1174" cy="673.105" rx="4" ry="4.17444" fill="#728797"/>
<ellipse cx="1174" cy="716.454" rx="4" ry="4.17444" fill="#728797"/>
<ellipse cx="1174" cy="759.803" rx="4" ry="4.17444" fill="#728797"/>
<ellipse cx="1174" cy="803.152" rx="4" ry="4.17444" fill="#728797"/>
<ellipse cx="1174" cy="846.501" rx="4" ry="4.17444" fill="#728797"/>
<ellipse cx="1174" cy="889.85" rx="4" ry="4.17444" fill="#728797"/>
<ellipse cx="1174" cy="933.199" rx="4" ry="4.17444" fill="#728797"/>
<ellipse cx="1174" cy="976.548" rx="4" ry="4.17444" fill="#728797"/>
<ellipse cx="1174" cy="1019.9" rx="4" ry="4.17444" fill="#728797"/>
<ellipse cx="1245" cy="22.8722" rx="4" ry="4.17444" fill="#728797"/>
<ellipse cx="1245" cy="66.2211" rx="4" ry="4.17444" fill="#728797"/>
<ellipse cx="1245" cy="109.57" rx="4" ry="4.17444" fill="#728797"/>
<ellipse cx="1245" cy="152.919" rx="4" ry="4.17444" fill="#728797"/>
<ellipse cx="1245" cy="196.268" rx="4" ry="4.17444" fill="#728797"/>
<ellipse cx="1245" cy="239.617" rx="4" ry="4.17444" fill="#728797"/>
<ellipse cx="1245" cy="282.965" rx="4" ry="4.17444" fill="#728797"/>
<ellipse cx="1245" cy="326.314" rx="4" ry="4.17444" fill="#728797"/>
<ellipse cx="1245" cy="369.663" rx="4" ry="4.17444" fill="#728797"/>
<ellipse cx="1245" cy="413.012" rx="4" ry="4.17444" fill="#728797"/>
<ellipse cx="1245" cy="456.361" rx="4" ry="4.17444" fill="#728797"/>
<ellipse cx="1245" cy="499.71" rx="4" ry="4.17444" fill="#728797"/>
<ellipse cx="1245" cy="543.059" rx="4" ry="4.17444" fill="#728797"/>
<ellipse cx="1245" cy="586.408" rx="4" ry="4.17444" fill="#728797"/>
<ellipse cx="1245" cy="629.757" rx="4" ry="4.17444" fill="#728797"/>
<ellipse cx="1245" cy="673.105" rx="4" ry="4.17444" fill="#728797"/>
<ellipse cx="1245" cy="716.454" rx="4" ry="4.17444" fill="#728797"/>
<ellipse cx="1245" cy="759.803" rx="4" ry="4.17444" fill="#728797"/>
<ellipse cx="1245" cy="803.152" rx="4" ry="4.17444" fill="#728797"/>
<ellipse cx="1245" cy="846.501" rx="4" ry="4.17444" fill="#728797"/>
<ellipse cx="1245" cy="889.85" rx="4" ry="4.17444" fill="#728797"/>
<ellipse cx="1245" cy="933.199" rx="4" ry="4.17444" fill="#728797"/>
<ellipse cx="1245" cy="976.548" rx="4" ry="4.17444" fill="#728797"/>
<ellipse cx="1245" cy="1019.9" rx="4" ry="4.17444" fill="#728797"/>
<ellipse cx="1316" cy="22.8722" rx="4" ry="4.17444" fill="#728797"/>
<ellipse cx="1316" cy="66.2211" rx="4" ry="4.17444" fill="#728797"/>
<ellipse cx="1316" cy="109.57" rx="4" ry="4.17444" fill="#728797"/>
<ellipse cx="1316" cy="152.919" rx="4" ry="4.17444" fill="#728797"/>
<ellipse cx="1316" cy="196.268" rx="4" ry="4.17444" fill="#728797"/>
<ellipse cx="1316" cy="239.617" rx="4" ry="4.17444" fill="#728797"/>
<ellipse cx="1316" cy="282.965" rx="4" ry="4.17444" fill="#728797"/>
<ellipse cx="1316" cy="326.314" rx="4" ry="4.17444" fill="#728797"/>
<ellipse cx="1316" cy="369.663" rx="4" ry="4.17444" fill="#728797"/>
<ellipse cx="1316" cy="413.012" rx="4" ry="4.17444" fill="#728797"/>
<ellipse cx="1316" cy="456.361" rx="4" ry="4.17444" fill="#728797"/>
<ellipse cx="1316" cy="499.71" rx="4" ry="4.17444" fill="#728797"/>
<ellipse cx="1316" cy="543.059" rx="4" ry="4.17444" fill="#728797"/>
<ellipse cx="1316" cy="586.408" rx="4" ry="4.17444" fill="#728797"/>
<ellipse cx="1316" cy="629.757" rx="4" ry="4.17444" fill="#728797"/>
<ellipse cx="1316" cy="673.105" rx="4" ry="4.17444" fill="#728797"/>
<ellipse cx="1316" cy="716.454" rx="4" ry="4.17444" fill="#728797"/>
<ellipse cx="1316" cy="759.803" rx="4" ry="4.17444" fill="#728797"/>
<ellipse cx="1316" cy="803.152" rx="4" ry="4.17444" fill="#728797"/>
<ellipse cx="1316" cy="846.501" rx="4" ry="4.17444" fill="#728797"/>
<ellipse cx="1316" cy="889.85" rx="4" ry="4.17444" fill="#728797"/>
<ellipse cx="1316" cy="933.199" rx="4" ry="4.17444" fill="#728797"/>
<ellipse cx="1316" cy="976.548" rx="4" ry="4.17444" fill="#728797"/>
<ellipse cx="1316" cy="1019.9" rx="4" ry="4.17444" fill="#728797"/>
<ellipse cx="1387" cy="22.8722" rx="4" ry="4.17444" fill="#728797"/>
<ellipse cx="1387" cy="66.2211" rx="4" ry="4.17444" fill="#728797"/>
<ellipse cx="1387" cy="109.57" rx="4" ry="4.17444" fill="#728797"/>
<ellipse cx="1387" cy="152.919" rx="4" ry="4.17444" fill="#728797"/>
<ellipse cx="1387" cy="196.268" rx="4" ry="4.17444" fill="#728797"/>
<ellipse cx="1387" cy="239.617" rx="4" ry="4.17444" fill="#728797"/>
<ellipse cx="1387" cy="282.965" rx="4" ry="4.17444" fill="#728797"/>
<ellipse cx="1387" cy="326.314" rx="4" ry="4.17444" fill="#728797"/>
<ellipse cx="1387" cy="369.663" rx="4" ry="4.17444" fill="#728797"/>
<ellipse cx="1387" cy="413.012" rx="4" ry="4.17444" fill="#728797"/>
<ellipse cx="1387" cy="456.361" rx="4" ry="4.17444" fill="#728797"/>
<ellipse cx="1387" cy="499.71" rx="4" ry="4.17444" fill="#728797"/>
<ellipse cx="1387" cy="543.059" rx="4" ry="4.17444" fill="#728797"/>
<ellipse cx="1387" cy="586.408" rx="4" ry="4.17444" fill="#728797"/>
<ellipse cx="1387" cy="629.757" rx="4" ry="4.17444" fill="#728797"/>
<ellipse cx="1387" cy="673.105" rx="4" ry="4.17444" fill="#728797"/>
<ellipse cx="1387" cy="716.454" rx="4" ry="4.17444" fill="#728797"/>
<ellipse cx="1387" cy="759.803" rx="4" ry="4.17444" fill="#728797"/>
<ellipse cx="1387" cy="803.152" rx="4" ry="4.17444" fill="#728797"/>
<ellipse cx="1387" cy="846.501" rx="4" ry="4.17444" fill="#728797"/>
<ellipse cx="1387" cy="889.85" rx="4" ry="4.17444" fill="#728797"/>
<ellipse cx="1387" cy="933.199" rx="4" ry="4.17444" fill="#728797"/>
<ellipse cx="1387" cy="976.548" rx="4" ry="4.17444" fill="#728797"/>
<ellipse cx="1387" cy="1019.9" rx="4" ry="4.17444" fill="#728797"/>
<ellipse cx="251" cy="22.8722" rx="4" ry="4.17444" fill="#728797"/>
<ellipse cx="251" cy="66.2211" rx="4" ry="4.17444" fill="#728797"/>
<ellipse cx="251" cy="109.57" rx="4" ry="4.17444" fill="#728797"/>
<ellipse cx="251" cy="152.919" rx="4" ry="4.17444" fill="#728797"/>
<ellipse cx="251" cy="196.268" rx="4" ry="4.17444" fill="#728797"/>
<ellipse cx="251" cy="239.617" rx="4" ry="4.17444" fill="#728797"/>
<ellipse cx="251" cy="282.965" rx="4" ry="4.17444" fill="#728797"/>
<ellipse cx="251" cy="326.314" rx="4" ry="4.17444" fill="#728797"/>
<ellipse cx="251" cy="369.663" rx="4" ry="4.17444" fill="#728797"/>
<ellipse cx="251" cy="413.012" rx="4" ry="4.17444" fill="#728797"/>
<ellipse cx="251" cy="456.361" rx="4" ry="4.17444" fill="#728797"/>
<ellipse cx="251" cy="499.71" rx="4" ry="4.17444" fill="#728797"/>
<ellipse cx="251" cy="543.059" rx="4" ry="4.17444" fill="#728797"/>
<ellipse cx="251" cy="586.408" rx="4" ry="4.17444" fill="#728797"/>
<ellipse cx="251" cy="629.757" rx="4" ry="4.17444" fill="#728797"/>
<ellipse cx="251" cy="673.105" rx="4" ry="4.17444" fill="#728797"/>
<ellipse cx="251" cy="716.454" rx="4" ry="4.17444" fill="#728797"/>
<ellipse cx="251" cy="759.803" rx="4" ry="4.17444" fill="#728797"/>
<ellipse cx="251" cy="803.152" rx="4" ry="4.17444" fill="#728797"/>
<ellipse cx="251" cy="846.501" rx="4" ry="4.17444" fill="#728797"/>
<ellipse cx="251" cy="889.85" rx="4" ry="4.17444" fill="#728797"/>
<ellipse cx="251" cy="933.199" rx="4" ry="4.17444" fill="#728797"/>
<ellipse cx="251" cy="976.548" rx="4" ry="4.17444" fill="#728797"/>
<ellipse cx="251" cy="1019.9" rx="4" ry="4.17444" fill="#728797"/>
<ellipse cx="180" cy="22.8722" rx="4" ry="4.17444" fill="#728797"/>
<ellipse cx="180" cy="66.2211" rx="4" ry="4.17444" fill="#728797"/>
<ellipse cx="180" cy="109.57" rx="4" ry="4.17444" fill="#728797"/>
<ellipse cx="180" cy="152.919" rx="4" ry="4.17444" fill="#728797"/>
<ellipse cx="180" cy="196.268" rx="4" ry="4.17444" fill="#728797"/>
<ellipse cx="180" cy="239.617" rx="4" ry="4.17444" fill="#728797"/>
<ellipse cx="180" cy="282.965" rx="4" ry="4.17444" fill="#728797"/>
<ellipse cx="180" cy="326.314" rx="4" ry="4.17444" fill="#728797"/>
<ellipse cx="180" cy="369.663" rx="4" ry="4.17444" fill="#728797"/>
<ellipse cx="180" cy="413.012" rx="4" ry="4.17444" fill="#728797"/>
<ellipse cx="180" cy="456.361" rx="4" ry="4.17444" fill="#728797"/>
<ellipse cx="180" cy="499.71" rx="4" ry="4.17444" fill="#728797"/>
<ellipse cx="180" cy="543.059" rx="4" ry="4.17444" fill="#728797"/>
<ellipse cx="180" cy="586.408" rx="4" ry="4.17444" fill="#728797"/>
<ellipse cx="180" cy="629.757" rx="4" ry="4.17444" fill="#728797"/>
<ellipse cx="180" cy="673.105" rx="4" ry="4.17444" fill="#728797"/>
<ellipse cx="180" cy="716.454" rx="4" ry="4.17444" fill="#728797"/>
<ellipse cx="180" cy="759.803" rx="4" ry="4.17444" fill="#728797"/>
<ellipse cx="180" cy="803.152" rx="4" ry="4.17444" fill="#728797"/>
<ellipse cx="180" cy="846.501" rx="4" ry="4.17444" fill="#728797"/>
<ellipse cx="180" cy="889.85" rx="4" ry="4.17444" fill="#728797"/>
<ellipse cx="180" cy="933.199" rx="4" ry="4.17444" fill="#728797"/>
<ellipse cx="180" cy="976.548" rx="4" ry="4.17444" fill="#728797"/>
<ellipse cx="180" cy="1019.9" rx="4" ry="4.17444" fill="#728797"/>
<ellipse cx="109" cy="22.8722" rx="4" ry="4.17444" fill="#728797"/>
<ellipse cx="109" cy="66.2211" rx="4" ry="4.17444" fill="#728797"/>
<ellipse cx="109" cy="109.57" rx="4" ry="4.17444" fill="#728797"/>
<ellipse cx="109" cy="152.919" rx="4" ry="4.17444" fill="#728797"/>
<ellipse cx="109" cy="196.268" rx="4" ry="4.17444" fill="#728797"/>
<ellipse cx="109" cy="239.617" rx="4" ry="4.17444" fill="#728797"/>
<ellipse cx="109" cy="282.965" rx="4" ry="4.17444" fill="#728797"/>
<ellipse cx="109" cy="326.314" rx="4" ry="4.17444" fill="#728797"/>
<ellipse cx="109" cy="369.663" rx="4" ry="4.17444" fill="#728797"/>
<ellipse cx="109" cy="413.012" rx="4" ry="4.17444" fill="#728797"/>
<ellipse cx="109" cy="456.361" rx="4" ry="4.17444" fill="#728797"/>
<ellipse cx="109" cy="499.71" rx="4" ry="4.17444" fill="#728797"/>
<ellipse cx="109" cy="543.059" rx="4" ry="4.17444" fill="#728797"/>
<ellipse cx="109" cy="586.408" rx="4" ry="4.17444" fill="#728797"/>
<ellipse cx="109" cy="629.757" rx="4" ry="4.17444" fill="#728797"/>
<ellipse cx="109" cy="673.105" rx="4" ry="4.17444" fill="#728797"/>
<ellipse cx="109" cy="716.454" rx="4" ry="4.17444" fill="#728797"/>
<ellipse cx="109" cy="759.803" rx="4" ry="4.17444" fill="#728797"/>
<ellipse cx="109" cy="803.152" rx="4" ry="4.17444" fill="#728797"/>
<ellipse cx="109" cy="846.501" rx="4" ry="4.17444" fill="#728797"/>
<ellipse cx="109" cy="889.85" rx="4" ry="4.17444" fill="#728797"/>
<ellipse cx="109" cy="933.199" rx="4" ry="4.17444" fill="#728797"/>
<ellipse cx="109" cy="976.548" rx="4" ry="4.17444" fill="#728797"/>
<ellipse cx="109" cy="1019.9" rx="4" ry="4.17444" fill="#728797"/>
<ellipse cx="38" cy="22.8722" rx="4" ry="4.17444" fill="#728797"/>
<ellipse cx="38" cy="66.2211" rx="4" ry="4.17444" fill="#728797"/>
<ellipse cx="38" cy="109.57" rx="4" ry="4.17444" fill="#728797"/>
<ellipse cx="38" cy="152.919" rx="4" ry="4.17444" fill="#728797"/>
<ellipse cx="38" cy="196.268" rx="4" ry="4.17444" fill="#728797"/>
<ellipse cx="38" cy="239.617" rx="4" ry="4.17444" fill="#728797"/>
<ellipse cx="38" cy="282.965" rx="4" ry="4.17444" fill="#728797"/>
<ellipse cx="38" cy="326.314" rx="4" ry="4.17444" fill="#728797"/>
<ellipse cx="38" cy="369.663" rx="4" ry="4.17444" fill="#728797"/>
<ellipse cx="38" cy="413.012" rx="4" ry="4.17444" fill="#728797"/>
<ellipse cx="38" cy="456.361" rx="4" ry="4.17444" fill="#728797"/>
<ellipse cx="38" cy="499.71" rx="4" ry="4.17444" fill="#728797"/>
<ellipse cx="38" cy="543.059" rx="4" ry="4.17444" fill="#728797"/>
<ellipse cx="38" cy="586.408" rx="4" ry="4.17444" fill="#728797"/>
<ellipse cx="38" cy="629.757" rx="4" ry="4.17444" fill="#728797"/>
<ellipse cx="38" cy="673.105" rx="4" ry="4.17444" fill="#728797"/>
<ellipse cx="38" cy="716.454" rx="4" ry="4.17444" fill="#728797"/>
<ellipse cx="38" cy="759.803" rx="4" ry="4.17444" fill="#728797"/>
<ellipse cx="38" cy="803.152" rx="4" ry="4.17444" fill="#728797"/>
<ellipse cx="38" cy="846.501" rx="4" ry="4.17444" fill="#728797"/>
<ellipse cx="38" cy="889.85" rx="4" ry="4.17444" fill="#728797"/>
<ellipse cx="38" cy="933.199" rx="4" ry="4.17444" fill="#728797"/>
<ellipse cx="38" cy="976.548" rx="4" ry="4.17444" fill="#728797"/>
<ellipse cx="38" cy="1019.9" rx="4" ry="4.17444" fill="#728797"/>
</svg>
